# xmcd CD database file
#
# Track frame offsets:
#	225
#	14953
#	30345
#	44121
#	63091
#	75728
#	87090
#	103733
#	119235
#	130552
#	144293
#	161011
#
# Disc length: 2318 seconds
#
# Revision: 0
# Processed by: cddbd v1.5.2PL0 Copyright (c) Steve Scherf et al.
# Submitted via: CDex 1.51
#
DISCID=a1090b0c
DTITLE=earthwoodfamily - atemlos
DYEAR=1900
DGENRE=Country
TTITLE0=SMS (zu Deinem Herz)
TTITLE1=Die schönsten Augen
TTITLE2=Rodeo Deluxe
TTITLE3=Dich hätt' ich nie gekannt
TTITLE4=Herz gebrochen
TTITLE5=Alles klar
TTITLE6=Hör auf
TTITLE7=Das beste für mich
TTITLE8=Halt die Klappe und küss mich
TTITLE9=Vergangenheit
TTITLE10=Mein Paradies
TTITLE11=Freunde
EXTD=
EXTT0=
EXTT1=
EXTT2=
EXTT3=
EXTT4=
EXTT5=
EXTT6=
EXTT7=
EXTT8=
EXTT9=
EXTT10=
EXTT11=
PLAYORDER=
